:SAMPLES-PER-SECOND 30
:FULLY-SPECIFIED
:DEGREES
208
root  -12.3529 37.9115 9.26176 -177.668 31.7066 177.374
RightUpLeg  -20.1434 -9.28894 -19.3331
RightLeg  18.143 -11.1633 -4.35005
RightFoot  8.35286 -3.3508 19.445
RightToes  -1.74624e-010 0 -3.6325e-017
Spine  8.96299 -2.74161 -10.6068
Spine1  20.6485 -6.30704 6.32998
HEad  -13.4444 35.8217 -14.7005
LeftShoulder1  0.744963 -0.156407 -13.3437
LeftArm  21.7716 0.723328 -62.5465
LeftForeArm  114.189 -77.8579 -121.225
LeftHand  -1.8996 -3.98162 23.5166
RightShoulder  0.883944 1.13371 12.0206
RightArm  2.62446 -24.7623 56.7611
RightForeArm  154.768 62.7994 159.287
RightHand  -0.993477 4.98059 -11.3828
LeftUpLeg  -11.0385 -7.69678 12.5292
LeftLeg  31.2666 7.39936 5.17228
LeftFoot  -11.2973 0.0682691 -20.3795
LeftToes  3.7286e-011 -1.5702e-010 -9.70233e-012
209
root  -13.4682 37.5357 9.20107 -178.662 32.6629 176.527
RightUpLeg  -22.2342 -9.23876 -20.776
RightLeg  24.5917 -11.5079 -5.86207
RightFoot  6.16023 -2.72857 17.8598
RightToes  -1.74624e-010 0 -3.6325e-017
Spine  9.86628 -2.40921 -11.9995
Spine1  20.2389 -6.02675 5.78869
HEad  -14.6103 35.6666 -14.6247
LeftShoulder1  0.524337 0.77327 -12.1052
LeftArm  21.2391 -2.32038 -60.2769
LeftForeArm  123.992 -75.1518 -135.197
LeftHand  -2.01809 -3.71924 25.6113
RightShoulder  0.909498 1.3504 11.6532
RightArm  2.14686 -26.4686 57.4695
RightForeArm  156.3 61.2118 160.701
RightHand  -1.02045 5.0656 -11.5871
LeftUpLeg  -10.5142 -6.60401 10.7802
LeftLeg  31.1622 4.93052 3.55202
LeftFoot  -16.6395 -0.896616 -21.803
LeftToes  3.7286e-011 -1.5702e-010 -9.70233e-012
210
root  -14.5153 37.0742 9.31042 179.226 33.2548 175.511
RightUpLeg  -23.8545 -7.98096 -21.9555
RightLeg  33.397 -8.2475 -6.01043
RightFoot  2.00736 -2.05684 17.5964
RightToes  -1.74624e-010 0 -3.6325e-017
Spine  11.3871 -1.71379 -13.9077
Spine1  21.2628 -5.67537 5.21224
HEad  -16.692 34.7591 -14.9728
LeftShoulder1  0.529899 0.673212 -11.5506
LeftArm  18.404 -5.81929 -57.3381
LeftForeArm  125.756 -73.9335 -139.06
LeftHand  -2.10802 -3.60261 27.0376
RightShoulder  0.824199 0.866405 11.8069
RightArm  2.42761 -24.4133 58.6284
RightForeArm  156.295 61.5034 160.462
RightHand  -1.12539 5.28668 -12.4889
LeftUpLeg  -10.9949 -3.72689 8.51093
LeftLeg  34.1997 3.44566 2.89814
LeftFoot  -21.0776 -1.44606 -18.3231
LeftToes  3.7286e-011 -1.5702e-010 -9.70233e-012
211
root  -15.4143 36.6967 9.48917 177.66 33.8802 175.006
RightUpLeg  -24.9422 -6.86245 -21.7108
RightLeg  40.8661 -4.87656 -4.81107
RightFoot  -1.80854 -1.57671 18.6313
RightToes  -1.74624e-010 0 -3.6325e-017
Spine  12.4573 -0.768408 -15.4362
Spine1  22.6963 -4.99177 4.64254
HEad  -18.2923 33.3644 -14.7686
LeftShoulder1  0.713429 -0.344787 -11.3412
LeftArm  14.3591 -8.23806 -54.5006
LeftForeArm  121.095 -75.1636 -134.406
LeftHand  -2.17149 -3.46775 28.2129
RightShoulder  0.726885 0.291177 12.1369
RightArm  3.48826 -20.8644 60.0532
RightForeArm  155.617 63.1508 159.069
RightHand  -1.24829 5.56569 -13.4736
LeftUpLeg  -12.1943 -1.29272 7.03712
LeftLeg  37.8883 3.21936 3.07979
LeftFoot  -23.4012 -1.49147 -15.3089
LeftToes  3.7286e-011 -1.5702e-010 -9.70233e-012
212
root  -16.125 36.5535 9.60857 177.429 34.8763 175.236
RightUpLeg  -25.4005 -6.98285 -19.7961
RightLeg  45.3164 -3.79733 -4.43281
RightFoot  -4.57078 -1.24751 20.3616
RightToes  -1.74624e-010 0 -3.6325e-017
Spine  12.2978 -0.0249291 -15.6265
Spine1  24.0136 -3.80039 3.40652
HEad  -18.4574 31.9814 -13.4307
LeftShoulder1  0.900282 -1.31862 -11.4861
LeftArm  11.2268 -9.02071 -52.3167
LeftForeArm  110.288 -77.273 -123.332
LeftHand  -2.28599 -3.30236 30.1587
RightShoulder  0.71366 0.20032 12.2677
RightArm  5.0655 -18.2902 61.4007
RightForeArm  155.167 64.5222 157.809
RightHand  -1.37431 5.86437 -14.413
LeftUpLeg  -13.4166 -0.170244 6.59143
LeftLeg  40.0117 3.02786 3.12824
LeftFoot  -24.1426 -1.53426 -14.889
LeftToes  3.7286e-011 -1.5702e-010 -9.70233e-012
213
root  -16.6516 36.67 9.64673 178.05 36.1267 175.789
RightUpLeg  -24.7876 -8.20112 -17.0699
RightLeg  46.5199 -4.50519 -5.38508
RightFoot  -7.14239 -0.846892 21.4696
RightToes  -1.74624e-010 0 -3.6325e-017
Spine  11.1798 0.367613 -14.9292
Spine1  25.0281 -2.39273 1.67126
HEad  -17.4709 31.0534 -11.4447
LeftShoulder1  0.966601 -1.47702 -12.3241
LeftArm  9.68674 -8.18896 -50.9433
LeftForeArm  99.2561 -78.4477 -112.613
LeftHand  -2.41098 -3.21979 32.0092
RightShoulder  0.736218 0.317656 12.2637
RightArm  7.0478 -17.1732 62.2425
RightForeArm  155.567 64.7062 157.671
RightHand  -1.49281 6.16731 -15.2248
LeftUpLeg  -14.0587 0.482186 6.4792
LeftLeg  39.9804 3.01817 3.11505
LeftFoot  -23.9514 -1.51103 -14.8979
LeftToes  3.7286e-011 -1.5702e-010 -9.70233e-012
214
root  -17.0403 36.9818 9.65414 178.952 37.4118 176.424
RightUpLeg  -23.0795 -9.29231 -14.4536
RightLeg  44.7335 -6.11305 -6.73615
RightFoot  -9.66853 -0.380438 21.1593
RightToes  -1.74624e-010 0 -3.6325e-017
Spine  9.92553 0.621005 -14.2063
Spine1  25.4717 -1.20035 0.32235
HEad  -16.3478 30.6333 -9.72594
LeftShoulder1  0.929302 -1.0065 -13.6343
LeftArm  8.85508 -5.51991 -50.4313
LeftForeArm  96.6919 -78.6736 -109.698
LeftHand  -2.49686 -3.39619 32.4592
RightShoulder  0.699092 0.109321 12.3648
RightArm  9.16015 -16.6656 62.5048
RightForeArm  156.248 64.1097 158.296
RightHand  -1.55539 6.36015 -15.5932
LeftUpLeg  -14.0065 1.06741 6.3247
LeftLeg  38.3253 4.02799 3.79572
LeftFoot  -22.8924 -1.29798 -14.1179
LeftToes  3.7286e-011 -1.5702e-010 -9.70233e-012
215
root  -17.3388 37.4085 9.66476 -179.892 38.6344 177.407
RightUpLeg  -20.8701 -9.12919 -12.2734
RightLeg  40.4911 -8.5284 -7.98195
RightFoot  -10.9423 -0.144419 20.0942
RightToes  -1.74624e-010 0 -3.6325e-017
Spine  9.03348 0.820138 -13.4188
Spine1  25.2185 -0.347814 -0.435336
HEad  -15.8218 30.423 -8.72949
LeftShoulder1  0.875239 -0.546033 -14.7226
LeftArm  7.99081 -1.2116 -50.9117
LeftForeArm  101.038 -78.5624 -112.297
LeftHand  -2.53566 -3.70869 31.8648
RightShoulder  0.618819 -0.327029 12.5207
RightArm  10.6731 -16.2186 62.5842
RightForeArm  156.018 63.4924 158.822
RightHand  -1.54858 6.33836 -15.5537
LeftUpLeg  -13.4733 1.09106 6.49217
LeftLeg  35.7866 5.7838 4.83826
LeftFoot  -21.1568 -1.04221 -13.5688
LeftToes  3.7286e-011 -1.5702e-010 -9.70233e-012
216
root  -17.5923 37.8513 9.68977 -178.599 39.6209 178.734
RightUpLeg  -18.7992 -8.03144 -10.6861
RightLeg  35.0976 -11.0978 -8.52439
RightFoot  -10.2306 -0.256357 19.1422
RightToes  -1.74624e-010 0 -3.6325e-017
Spine  8.53424 0.843578 -12.3195
Spine1  24.5707 0.220226 -1.1494
HEad  -15.9075 30.19 -8.34377
LeftShoulder1  0.867154 -0.40494 -15.3522
LeftArm  7.07932 3.55512 -52.3237
LeftForeArm  104.353 -78.5269 -113.8
LeftHand  -2.54805 -3.88183 31.4473
RightShoulder  0.572641 -0.559951 12.5007
RightArm  11.1238 -15.7507 62.7783
RightForeArm  154.712 63.1683 158.969
RightHand  -1.53045 6.17859 -15.5807
LeftUpLeg  -12.7309 0.27594 7.04971
LeftLeg  33.0285 7.53599 5.61094
LeftFoot  -19.3182 -0.837983 -13.6216
LeftToes  3.7286e-011 -1.5702e-010 -9.70233e-012
217
root  -17.829 38.216 9.73783 -177.528 40.1734 179.944
RightUpLeg  -17.3052 -7.6014 -9.7595
RightLeg  30.3325 -12.1222 -7.80527
RightFoot  -8.30592 -0.553358 18.5748
RightToes  -1.74624e-010 0 -3.6325e-017
Spine  8.2814 0.640278 -11.2919
Spine1  24.016 0.442914 -1.89912
HEad  -16.2655 29.9894 -8.31493
LeftShoulder1  0.911739 -0.516618 -15.8915
LeftArm  6.26471 7.51461 -54.2154
LeftForeArm  102.642 -78.699 -111.827
LeftHand  -2.53123 -3.80433 31.5006
RightShoulder  0.560601 -0.593901 12.2933
RightArm  10.8795 -15.0474 62.8769
RightForeArm  153.299 63.1064 158.879
RightHand  -1.53231 6.03331 -15.7883
LeftUpLeg  -12.0732 -0.91457 7.56233
LeftLeg  30.6102 9.12277 6.13973
LeftFoot  -17.7934 -0.651878 -13.3883
LeftToes  3.7286e-011 -1.5702e-010 -9.70233e-012
218
root  -18.0484 38.4682 9.81089 -176.81 40.3403 -179.372
RightUpLeg  -16.6699 -8.65552 -9.33774
RightLeg  27.3297 -11.1815 -6.42962
RightFoot  -6.37393 -0.847686 18.379
RightToes  -1.74624e-010 0 -3.6325e-017
Spine  8.07382 0.367832 -10.9148
Spine1  23.7252 0.301496 -2.17785
HEad  -16.6849 29.8886 -8.46424
LeftShoulder1  0.983034 -0.716935 -16.5619
LeftArm  5.84684 10.1318 -55.9906
LeftForeArm  98.4284 -78.8653 -108.723
LeftHand  -2.47401 -3.58982 31.5208
RightShoulder  0.531533 -0.718524 12.0959
RightArm  10.5148 -14.0658 62.6531
RightForeArm  152.633 63.1856 158.743
RightHand  -1.52372 5.93699 -15.8299
LeftUpLeg  -11.7545 -1.75462 7.75251
LeftLeg  28.7626 10.3812 6.46569
LeftFoot  -16.6176 -0.488401 -12.7138
LeftToes  3.7286e-011 -1.5702e-010 -9.70233e-012
219
root  -18.2312 38.603 9.90983 -176.42 40.2806 -179.304
RightUpLeg  -16.7563 -10.2721 -9.29845
RightLeg  25.9534 -9.95299 -5.44931
RightFoot  -5.11357 -1.04468 18.4095
RightToes  -1.74624e-010 0 -3.6325e-017
Spine  7.84337 0.190755 -11.1682
Spine1  23.588 0.00722279 -1.93795
HEad  -17.1231 29.7225 -8.64627
LeftShoulder1  1.04671 -0.897916 -17.0961
LeftArm  6.42638 11.2443 -57.1791
LeftForeArm  95.4792 -78.941 -106.725
LeftHand  -2.41618 -3.44358 31.3056
RightShoulder  0.490031 -0.927058 12.0341
RightArm  10.072 -13.3327 62.3227
RightForeArm  152.653 63.2214 158.714
RightHand  -1.50107 5.8745 -15.6854
LeftUpLeg  -11.8739 -1.81983 7.67911
LeftLeg  27.5536 10.6418 6.31822
LeftFoot  -15.8824 -0.394065 -12.2996
LeftToes  3.7286e-011 -1.5702e-010 -9.70233e-012
220
root  -18.3742 38.6402 10.0337 -176.489 39.9542 -179.654
RightUpLeg  -16.8518 -11.5363 -9.58198
RightLeg  25.2836 -9.47782 -5.06544
RightFoot  -4.69731 -1.11241 18.4605
RightToes  -1.74624e-010 0 -3.6325e-017
Spine  7.74434 0.0820486 -11.4068
Spine1  23.6796 -0.208378 -1.71399
HEad  -17.4783 29.305 -8.77975
LeftShoulder1  1.09024 -1.05715 -17.2318
LeftArm  8.24323 10.6393 -57.5532
LeftForeArm  93.8177 -79.0501 -104.844
LeftHand  -2.40451 -3.53666 30.8571
RightShoulder  0.484032 -0.963633 12.0772
RightArm  9.28352 -13.2741 62.2197
RightForeArm  152.736 63.1805 158.758
RightHand  -1.50807 5.87394 -15.7563
LeftUpLeg  -12.1717 -1.33046 7.4567
LeftLeg  26.9494 9.80765 5.72152
LeftFoot  -15.63 -0.362308 -12.1337
LeftToes  3.7286e-011 -1.5702e-010 -9.70233e-012
221
root  -18.4909 38.6388 10.1687 -177.087 39.3592 179.931
RightUpLeg  -16.3447 -12.2524 -9.983
RightLeg  24.7 -9.46664 -4.93932
RightFoot  -4.78833 -1.08986 18.3158
RightToes  -1.74624e-010 0 -3.6325e-017
Spine  7.87105 -0.014394 -11.1418
Spine1  24.2125 -0.28815 -1.73657
HEad  -17.5147 28.6975 -8.88788
LeftShoulder1  1.13198 -1.25936 -17.0829
LeftArm  10.5335 8.46132 -57.2868
LeftForeArm  91.2843 -79.2622 -101.115
LeftHand  -2.41896 -3.84331 30.0568
RightShoulder  0.522297 -0.774905 12.1611
RightArm  8.24971 -13.5404 62.308
RightForeArm  152.533 63.3643 158.577
RightHand  -1.54704 5.93623 -16.0657
LeftUpLeg  -12.1786 -0.976439 7.18816
LeftLeg  26.6988 8.86421 5.16175
LeftFoot  -15.5073 -0.337298 -11.7844
LeftToes  3.7286e-011 -1.5702e-010 -9.70233e-012
